HIERARCHY
ROOT Hips
{
	OFFSET -3.958830 18.904000 13.208200
	CHANNELS 6 Xposition Yposition Zposition Zrotation Yrotation Xrotation 
	JOINT LHipJoint
	{
		OFFSET 0.000000 0.000000 0.000000
		CHANNELS 3 Zrotation Yrotation Xrotation
		JOINT LeftUpLeg
		{
			OFFSET 1.800000 -1.400000 0.085000
			CHANNELS 3 Zrotation Yrotation Xrotation
			JOINT LeftLeg
			{
				OFFSET 2.215000 -6.000000 0.000000
				CHANNELS 3 Zrotation Yrotation Xrotation
				JOINT LeftFoot
				{
					OFFSET 2.500000 -6.900000 0.000000
					CHANNELS 3 Zrotation Yrotation Xrotation
					JOINT LeftToeBase
					{
						OFFSET 0.200000 -0.500000 1.950000
						CHANNELS 3 Zrotation Yrotation Xrotation
						End Site
						{
							OFFSET 0.000000 0.000000 0.000000
						}
					}
				}
			}
		}
	}
	JOINT RHipJoint
	{
		OFFSET 0.000000 0.000000 0.000000
		CHANNELS 3 Zrotation Yrotation Xrotation
		JOINT RightUpLeg
		{
			OFFSET -1.800000 -1.400000 0.085000
			CHANNELS 3 Zrotation Yrotation Xrotation
			JOINT RightLeg
			{
				OFFSET -2.215000 -6.000000 0.000000
				CHANNELS 3 Zrotation Yrotation Xrotation
				JOINT RightFoot
				{
					OFFSET -2.500000 -6.900000 0.000000
					CHANNELS 3 Zrotation Yrotation Xrotation
					JOINT RightToeBase
					{
						OFFSET -0.200000 -0.500000 1.950000
						CHANNELS 3 Zrotation Yrotation Xrotation
						End Site
						{
							OFFSET 0.000000 0.000000 0.000000
						}
					}
				}
			}
		}
	}
	JOINT LowerBack
	{
		OFFSET 0.000000 0.000000 0.000000
		CHANNELS 3 Zrotation Yrotation Xrotation
		JOINT Spine
		{
			OFFSET -0.087000 1.940000 -0.288900
			CHANNELS 3 Zrotation Yrotation Xrotation
			JOINT Spine1
			{
				OFFSET 0.000000 1.950000 0.060000
				CHANNELS 3 Zrotation Yrotation Xrotation
				JOINT Neck
				{
					OFFSET 0.000000 0.000000 0.000000
					CHANNELS 3 Zrotation Yrotation Xrotation
					JOINT Neck1
					{
						OFFSET 0.000000 1.600000 0.340000
						CHANNELS 3 Zrotation Yrotation Xrotation
						JOINT Head
						{
							OFFSET 0.000000 1.667000 -0.240000
							CHANNELS 3 Zrotation Yrotation Xrotation
							End Site
							{
								OFFSET 0.000000 0.000000 0.000000
							}
						}
					}
				}
				JOINT LeftShoulder
				{
					OFFSET 0.000000 0.000000 0.000000
					CHANNELS 3 Zrotation Yrotation Xrotation
					JOINT LeftArm
					{
						OFFSET 2.700000 1.550000 -0.730000
						CHANNELS 3 Zrotation Yrotation Xrotation
						JOINT LeftForeArm
						{
							OFFSET 5.450000 0.000000 0.000000
							CHANNELS 3 Zrotation Yrotation Xrotation
							JOINT LeftHand
							{
								OFFSET 3.450000 0.000000 0.000000
								CHANNELS 3 Zrotation Yrotation Xrotation
								JOINT LeftHandIndex1
								{
									OFFSET 0.750000 0.000000 0.000000
									CHANNELS 3 Zrotation Yrotation Xrotation
									End Site
									{
										OFFSET 0.000000 0.000000 0.000000
									}
								}
							}
						}
					}
				}
				JOINT RightShoulder
				{
					OFFSET 0.000000 0.000000 0.000000
					CHANNELS 3 Zrotation Yrotation Xrotation
					JOINT RightArm
					{
						OFFSET -2.700000 1.550000 -0.730000
						CHANNELS 3 Zrotation Yrotation Xrotation
						JOINT RightForeArm
						{
							OFFSET -5.450000 0.000000 0.000000
							CHANNELS 3 Zrotation Yrotation Xrotation
							JOINT RightHand
							{
								OFFSET -3.450000 0.000000 0.000000
								CHANNELS 3 Zrotation Yrotation Xrotation
								JOINT RightHandIndex1
								{
									OFFSET -0.750000 0.000000 0.000000
									CHANNELS 3 Zrotation Yrotation Xrotation
									End Site
									{
										OFFSET 0.000000 0.000000 0.000000
									}
								}
							}
						}
					}
				}
			}
		}
	}
}
MOTION
Frames: 14
Frame Time: 0.016667
-1.021230 15.942560 -3.707870 6.511829 -38.191661 -9.380224 -15.028068 12.300373 2.360971 28.225784 -2.801533 2.445188 -11.364448 11.133865 21.209745 0.369384 7.311043 1.807357 0.488780 0.484660 0.471160 18.671062 -9.164196 4.568966 -32.562697 -5.624072 -44.892668 11.543665 -9.953639 24.841696 -0.519118 -5.288529 2.132570 0.220600 -0.392050 0.038440 -5.310390 -1.300550 -8.100837 17.207513 -17.604298 38.709032 -17.907017 -11.867453 11.674391 2.253899 -12.050057 -16.590179 -39.517936 21.169633 28.788108 -13.132230 12.691760 -21.166050 -4.007635 -19.135218 5.722113 9.883685 -12.690998 -3.199202 11.352442 -9.150817 -0.744323 -3.515954 2.847350 0.467640 -0.295140 0.379220 -0.012790 1.193558 19.698666 10.256506 9.306147 -2.782686 -8.924216 -12.108827 43.835635 -2.294120 2.028612 -1.404855 0.057340 0.109460 -0.138970 -0.190380 
-1.097610 15.929140 -3.737220 6.516149 -37.778724 -9.571454 -15.016776 12.280870 2.327421 28.634709 -2.744075 2.239661 -10.824665 11.107384 21.601509 0.356916 7.299988 1.806962 0.509320 0.512460 0.495640 18.684043 -9.178694 4.623897 -32.842053 -5.355160 -45.158929 11.959712 -10.374482 26.259770 -0.547811 -5.494920 2.060123 0.240770 -0.397070 0.041900 -5.332627 -1.207840 -8.128815 16.746892 -17.222133 39.253142 -18.108408 -11.604525 11.881785 2.119173 -12.021085 -15.989752 -38.485401 20.943647 29.229977 -13.367820 12.747500 -21.298460 -5.100448 -19.156407 5.424984 8.634773 -12.995668 -4.205191 15.596267 -11.836050 -1.427116 -3.540516 2.893592 0.455100 -0.285840 0.384830 -0.007470 2.402017 19.642105 9.954037 10.243854 -2.757325 -9.593421 -12.930592 46.402172 -3.046125 2.005755 -1.423845 0.062030 0.110880 -0.155710 -0.193380 
-1.264460 15.914660 -3.789460 6.146027 -36.502338 -9.443029 -14.972899 12.259992 2.180369 29.283412 -2.594803 1.396820 -8.706436 10.637224 22.295136 0.282805 7.102305 1.852112 0.515930 0.521310 0.519420 18.729381 -9.246242 4.762217 -33.671365 -4.979690 -45.108378 13.632693 -11.378810 28.207118 -0.605861 -5.935449 1.902891 0.249100 -0.412270 0.053030 -5.415806 -0.974852 -8.136749 16.767891 -16.867824 39.580020 -19.244409 -11.204010 12.361440 2.259418 -11.853589 -14.988223 -36.900424 20.337324 30.683686 -14.447770 12.609370 -21.439030 -6.681952 -18.741743 4.851782 6.102820 -12.939028 -5.856273 21.865864 -19.475413 -3.283328 -3.534176 2.953485 0.447800 -0.273750 0.392470 -0.017160 3.409305 19.053593 9.481453 15.045466 -3.133006 -11.770804 -14.099432 53.730816 -4.963275 1.929831 -1.454269 0.067000 0.101180 -0.159330 -0.204800 
-1.474660 15.926640 -3.858510 5.597702 -34.841593 -8.520214 -14.933042 12.179238 2.071970 30.065632 -2.468209 0.013919 -6.850951 9.933849 21.788534 0.161514 6.808479 1.929801 0.541970 0.551230 0.541610 18.781970 -9.277777 4.872977 -34.366002 -4.464512 -44.805506 15.783592 -12.273590 29.128918 -0.664354 -6.291111 1.775276 0.282270 -0.414540 0.062090 -5.489180 -0.771433 -8.151512 16.801256 -16.417919 39.586970 -19.940646 -10.813682 12.606323 1.958835 -12.020083 -13.759612 -36.153329 19.398659 30.646428 -14.999530 11.602420 -22.356580 -8.230679 -17.487264 4.116219 1.887696 -13.005053 -7.422313 29.834157 -29.469992 -7.135496 -3.514506 2.930902 0.446100 -0.262200 0.393540 -0.018050 5.293354 17.768808 8.859440 20.687685 -3.218910 -13.860927 -12.960785 62.198301 -6.671630 1.865601 -1.484379 0.064140 0.114720 -0.160330 -0.212670 
-1.715590 15.945820 -3.900890 4.628534 -32.610802 -6.099506 -14.924791 12.027009 2.030434 31.066552 -2.436287 -2.367938 -5.588882 9.215377 20.292059 0.055803 6.451733 2.026884 0.555910 0.572180 0.538840 18.838670 -9.105971 5.021080 -35.466464 -4.144796 -44.631005 19.139585 -13.461619 29.113224 -0.738318 -6.682351 1.651277 0.302290 -0.405570 0.052910 -5.490961 -0.832334 -8.218706 17.223574 -16.226491 37.861004 -20.408634 -10.691714 12.173357 1.953688 -12.282707 -12.903796 -36.576245 18.750492 30.577581 -14.789980 10.279820 -22.692230 -10.660725 -15.670538 3.617356 -5.372860 -12.657263 -8.799621 41.162789 -40.132246 -14.402979 -3.462112 2.795285 0.438130 -0.263330 0.385750 -0.010520 7.495477 16.224458 8.426674 26.760632 -2.426267 -15.006285 -7.470936 69.737032 -5.898689 1.872756 -1.549182 0.062600 0.138390 -0.159860 -0.203880 
-1.977920 15.987030 -3.932670 3.224736 -30.975577 -2.951888 -14.919594 11.869825 2.055900 32.124097 -2.423732 -4.821274 -4.357183 8.467107 18.394540 -0.036927 6.099500 2.122543 0.561200 0.579430 0.535930 18.883750 -8.908998 5.168417 -35.812014 -3.297446 -44.853813 22.800143 -14.302128 28.213566 -0.808592 -6.893872 1.590804 0.308850 -0.392270 0.054840 -5.489438 -0.878367 -8.295909 17.618946 -15.706853 35.623798 -21.129875 -10.286197 11.253460 2.179065 -12.238028 -11.932773 -36.422013 18.846925 31.567357 -14.574120 9.880330 -23.037410 -14.368968 -13.700647 2.747305 -12.336721 -12.895193 -9.810015 52.962724 -49.333308 -24.043867 -3.412214 2.548424 0.443780 -0.261310 0.385210 -0.006390 10.381163 14.308759 8.134189 32.980732 -0.730311 -14.403379 6.067437 72.697092 1.411262 1.962706 -1.668937 0.059070 0.157070 -0.152530 -0.200060 
-2.273370 16.025070 -3.988310 2.236332 -28.908424 0.193059 -14.940173 11.752984 2.168945 33.240339 -2.401201 -8.727245 -3.289002 8.032907 17.999613 -0.084452 5.838599 2.178464 0.553910 0.568520 0.512800 18.902619 -8.653476 5.327169 -36.295289 -2.243425 -44.752481 27.032407 -14.839944 26.434844 -0.877277 -7.017772 1.579638 0.295280 -0.368710 0.048350 -5.376221 -1.079751 -8.457560 16.812411 -13.999838 33.544466 -21.005750 -9.078499 9.054084 2.388830 -11.891087 -10.932039 -35.203883 18.479450 33.916631 -12.626520 9.460550 -22.239330 -18.662505 -11.047483 1.493762 -18.775715 -12.846925 -10.234108 63.692306 -58.790593 -35.621939 -3.290622 2.166005 0.449740 -0.265930 0.378750 0.010000 13.762701 12.024175 7.989909 39.698310 -0.843368 -13.442559 22.672888 69.814437 10.907207 2.103482 -1.724533 0.055780 0.166560 -0.154440 -0.187320 
-2.582150 16.098230 -4.054610 1.313534 -27.000424 2.969380 -14.953980 11.658674 2.309343 34.055031 -2.270335 -12.783962 -2.099590 7.744480 18.623712 -0.102644 5.632415 2.220051 0.552010 0.568450 0.486670 18.912793 -8.491976 5.446576 -36.256322 -0.942074 -44.372836 30.899772 -14.769022 24.167361 -0.935639 -6.977802 1.622800 0.279740 -0.354150 0.039320 -5.277882 -1.141324 -8.627059 15.486612 -12.163397 32.488702 -20.575487 -7.916165 5.959953 2.288156 -11.758520 -9.761688 -34.292722 17.810597 35.864203 -10.326930 8.561910 -22.058780 -23.194032 -8.402503 0.302343 -23.575769 -11.883522 -10.533544 73.341834 -66.713630 -47.629194 -3.111908 1.586776 0.461770 -0.287360 0.384290 0.030860 17.992957 9.893665 7.444517 45.740980 -1.678900 -13.571939 29.177819 63.690731 12.813570 2.214665 -1.640160 0.061490 0.178490 -0.161710 -0.166150 
-2.893210 16.156770 -4.122130 0.376106 -25.502057 5.583806 -15.008400 11.598469 2.544222 34.823087 -1.967885 -17.030974 -1.177750 7.816597 20.290338 -0.101180 5.616169 2.198627 0.534580 0.547650 0.460000 18.877414 -8.329323 5.491802 -35.367129 0.717218 -44.152373 33.769871 -14.321174 22.276588 -0.959228 -6.826053 1.701389 0.259130 -0.339530 0.028940 -5.074507 -1.290654 -8.825479 13.086794 -9.864137 31.561684 -19.388789 -6.478603 2.779125 2.025241 -11.471622 -8.681784 -32.496652 17.136289 37.605549 -8.004690 8.288290 -21.583260 -26.506669 -5.394916 -0.621933 -27.574035 -10.263377 -10.303256 82.720135 -71.940479 -59.572563 -2.963797 0.759476 0.474480 -0.297530 0.378530 0.036350 21.406183 7.661907 6.397197 51.043331 -2.305206 -14.080460 29.659086 55.843840 10.770217 2.291330 -1.514018 0.055290 0.177630 -0.160740 -0.159410 
-3.209860 16.243480 -4.212220 -0.804494 -24.283597 7.957304 -15.097024 11.625378 2.860821 35.270141 -1.545161 -21.627283 0.171568 8.026462 23.195132 -0.073105 5.729798 2.133842 0.521680 0.533750 0.436790 18.785188 -8.233666 5.404969 -32.749386 2.865773 -44.038091 34.595336 -13.241618 20.844213 -0.927007 -6.410287 1.860201 0.237020 -0.333460 0.026370 -4.743915 -1.520928 -9.015205 9.655001 -7.382126 31.503340 -17.416967 -4.821270 -0.000562 1.674630 -10.898025 -8.045172 -30.181946 16.383945 39.037305 -5.027030 8.147320 -21.524360 -28.251282 -2.952331 -1.111928 -31.266391 -9.071015 -9.571167 89.719660 -72.363719 -67.504575 -2.981981 0.328878 0.492760 -0.313840 0.383010 0.038650 23.706118 6.076814 5.386387 55.461272 -2.912341 -14.885724 28.255761 48.826063 8.176759 2.353352 -1.394350 0.057320 0.165430 -0.161990 -0.152500 
-3.517150 16.336330 -4.295570 -1.890051 -23.185923 10.234472 -15.223191 11.617435 3.215293 35.178143 -1.097928 -26.294270 1.339841 8.492075 27.075255 -0.019635 6.048794 2.021642 0.515870 0.537080 0.386080 18.671709 -8.099471 5.269940 -29.748986 4.811256 -44.037869 34.578455 -12.036369 19.606487 -0.867172 -5.934122 2.044932 0.237820 -0.296180 0.009930 -4.365896 -1.819178 -9.161074 6.088649 -4.931196 31.323775 -14.438142 -3.052549 -2.015689 0.734664 -11.020208 -7.684878 -30.078879 15.471222 38.220072 -0.775840 6.607290 -21.686520 -28.362324 -0.269448 -1.113550 -36.178032 -8.724426 -7.108873 99.553434 -69.800210 -78.786566 -3.261584 0.549745 0.494100 -0.328820 0.368630 0.062390 25.786769 4.867195 4.193601 57.521161 -3.140737 -15.132770 25.537654 42.376947 5.734413 2.400004 -1.294254 0.052210 0.184290 -0.162360 -0.122000 
-3.809090 16.432530 -4.382460 -2.619715 -21.965089 11.846262 -15.365827 11.557909 3.611174 34.465809 -0.843448 -30.757119 1.928972 9.315220 31.930414 0.052210 6.616397 1.829679 0.508650 0.529810 0.362720 18.543464 -8.014420 5.060411 -26.386792 6.332893 -43.555688 33.684014 -10.820717 18.554914 -0.786622 -5.426722 2.231115 0.238490 -0.270650 0.005190 -3.954668 -2.032672 -9.266682 1.752753 -2.462009 31.682404 -11.761647 -1.421770 -3.129451 -0.104145 -10.778207 -6.997437 -27.769153 13.217735 36.306057 2.580640 5.297230 -23.081690 -27.337410 2.091250 -1.496408 -38.802911 -8.997676 -4.890034 111.120383 -67.610512 -94.445791 -3.557522 1.633701 0.495250 -0.333960 0.354480 0.068730 26.619599 3.478808 3.258010 58.761435 -3.610501 -15.385977 26.355693 39.855564 5.388702 2.421983 -1.271082 0.043000 0.191440 -0.161520 -0.110430 
-4.069380 16.524600 -4.466990 -2.962515 -20.741253 12.778349 -15.484818 11.396535 4.030377 33.128005 -0.938025 -34.814585 1.576313 10.771475 38.176382 0.177362 7.543446 1.522196 0.489880 0.510010 0.345340 18.445554 -7.999486 4.809238 -22.978324 7.361377 -42.856847 32.012492 -9.657850 17.660748 -0.688260 -4.908368 2.417868 0.235500 -0.242590 0.006090 -3.637264 -2.019069 -9.328605 -2.291300 0.207889 32.129743 -10.126454 0.518469 -3.050928 -0.573793 -9.560261 -6.624097 -23.178991 10.165022 34.864919 5.611210 4.391350 -24.080380 -24.838611 2.948481 -1.912405 -38.798806 -10.205287 -4.067892 121.987604 -65.859248 -107.408436 -3.563204 2.504999 0.490820 -0.322500 0.337420 0.067160 25.223405 2.752745 3.337123 59.956497 -4.987552 -16.224623 32.002020 41.276426 7.123230 2.415498 -1.330184 0.027770 0.192450 -0.155950 -0.108630 
-4.309580 16.622280 -4.537300 -3.276160 -19.789301 13.477557 -15.606642 11.241792 4.469961 31.429058 -1.497681 -38.377188 0.730784 12.773285 45.521378 0.388031 8.802305 1.123929 0.464500 0.482990 0.321270 18.348832 -7.967897 4.498782 -19.219282 8.016790 -41.733662 29.939133 -8.528213 16.628621 -0.574446 -4.362643 2.621090 0.234010 -0.204740 0.007610 -3.329989 -2.112216 -9.339092 -5.929535 2.635033 32.318935 -7.847032 2.297256 -2.903377 -1.228693 -8.350288 -6.312336 -19.613187 7.842099 33.488384 7.492670 3.776220 -24.108710 -22.295741 3.648125 -2.024723 -38.381274 -11.402136 -3.129274 128.274154 -63.174940 -112.314815 -3.537457 2.795858 0.474280 -0.295370 0.309310 0.067810 24.143558 2.190180 3.309186 59.338626 -6.006810 -16.639229 33.118930 41.597472 7.464024 2.388962 -1.361190 0.008210 0.195590 -0.144050 -0.106730 
